<svg xmlns="http://www.w3.org/2000/svg" width="16" height="17" fill="none" viewBox="0 0 16 17"><path fill="#fff" d="M15.094 1.406c.25-.25.656-.062.656.25v4.469a.38.38 0 0 1-.375.375h-4.5a.36.36 0 0 1-.25-.625l1.688-1.688A5.992 5.992 0 0 0 8 2.375a6.134 6.134 0 0 0-6.125 5.781c-.031.219-.188.344-.375.344H.625c-.219 0-.406-.156-.375-.375C.438 4.031 3.844.75 8 .75c2.125 0 4.063.875 5.469 2.281l1.625-1.625Zm.25 7.094c.219 0 .406.188.375.406C15.53 13 12.125 16.25 8 16.25c-2.156 0-4.094-.844-5.5-2.25L.875 15.625a.36.36 0 0 1-.625-.25v-4.5a.38.38 0 0 1 .375-.375h4.469c.312 0 .5.406.25.656l-1.688 1.688C4.75 13.969 6.281 14.625 8 14.625a6.1 6.1 0 0 0 6.094-5.75c.031-.219.187-.375.375-.375h.875Z"/></svg>