<svg xmlns="http://www.w3.org/2000/svg" width="16" height="16" fill="none" viewBox="0 0 16 16"><path fill="#fff" d="M9.25 1.5c0 .719-.563 1.25-1.25 1.25-.719 0-1.25-.531-1.25-1.25C6.75.812 7.281.25 8 .25c.688 0 1.25.563 1.25 1.25ZM8 13.25c.688 0 1.25.563 1.25 1.25 0 .719-.563 1.25-1.25 1.25-.719 0-1.25-.531-1.25-1.25 0-.688.531-1.25 1.25-1.25ZM15.75 8c0 .719-.563 1.25-1.25 1.25-.719 0-1.25-.531-1.25-1.25 0-.688.531-1.25 1.25-1.25.688 0 1.25.563 1.25 1.25Zm-13 0c0 .719-.563 1.25-1.25 1.25C.781 9.25.25 8.719.25 8c0-.688.531-1.25 1.25-1.25.688 0 1.25.563 1.25 1.25Zm.625-5.844c.719 0 1.25.563 1.25 1.25 0 .719-.531 1.25-1.25 1.25-.688 0-1.25-.531-1.25-1.25 0-.687.563-1.25 1.25-1.25Zm9.219 9.219c.687 0 1.25.531 1.25 1.25 0 .688-.563 1.25-1.25 1.25-.719 0-1.25-.563-1.25-1.25 0-.719.531-1.25 1.25-1.25Zm-9.219 0c.719 0 1.25.531 1.25 1.25 0 .688-.531 1.25-1.25 1.25-.688 0-1.25-.563-1.25-1.25 0-.719.563-1.25 1.25-1.25Z"/></svg>