<svg width="20" height="20" viewBox="0 0 20 20" fill="none" xmlns="http://www.w3.org/2000/svg">
<path fill-rule="evenodd" clip-rule="evenodd" d="M13.3533 12.549H14.2603L19.9529 18.2531L18.2531 19.9529L12.549 14.2603V13.359L12.2353 13.0453C10.9405 14.1576 9.25775 14.8307 7.41535 14.8307C3.31979 14.8307 0 11.5109 0 7.41535C0 3.31979 3.31984 0 7.41535 0C11.5109 0 14.8306 3.31979 14.8306 7.41535C14.8306 9.25775 14.1576 10.9405 13.0396 12.2353L13.3533 12.549ZM2.28166 7.41535C2.28166 10.2503 4.58043 12.549 7.41535 12.549C10.2503 12.549 12.549 10.2503 12.549 7.41535C12.549 4.58043 10.2503 2.28166 7.41535 2.28166C4.58043 2.28166 2.28166 4.58043 2.28166 7.41535Z" fill="white"/>
</svg>
