<svg width="32" height="21" xmlns="http://www.w3.org/2000/svg"><path d="M29.655 4.333h-.322V4A3.67 3.67 0 0025.667.333h-22A3.67 3.67 0 000 4v12.667a3.67 3.67 0 003.667 3.666h22a3.67 3.67 0 003.666-3.666v-.334h.322A2.336 2.336 0 0031.988 14V6.667a2.336 2.336 0 00-2.333-2.334zm-20.322 11a1 1 0 01-1 1H5a1 1 0 01-1-1v-10a1 1 0 011-1h3.333a1 1 0 011 1v10zm8 0a1 1 0 01-1 1H13a1 1 0 01-1-1v-10a1 1 0 011-1h3.333a1 1 0 011 1v10zm8 0a1 1 0 01-1 1H21a1 1 0 01-1-1v-10a1 1 0 011-1h3.333a1 1 0 011 1v10z" fill="#FFF" fill-rule="nonzero"/></svg>