<svg width="32" height="32" xmlns="http://www.w3.org/2000/svg"><path d="M20 28v1.667A2.345 2.345 0 0117.667 32h-3.334C13.213 32 12 31.147 12 29.28V28h8zm5.47-3.947l1.845 1.846a1 1 0 11-1.415 1.414l-1.845-1.845a1 1 0 111.414-1.415zm-17.523 0a1 1 0 010 1.415L6.1 27.313a.997.997 0 01-1.414 0 1 1 0 010-1.414l1.845-1.846a1 1 0 011.415 0zM14 6.88c2.813-.6 5.693.093 7.88 1.867A9.297 9.297 0 0125.333 16c0 2.88-1.306 5.547-3.56 7.333-.92.72-1.52 1.654-1.706 2.667v.013C20.04 26 20.027 26 20 26h-8l-.047.002-.046.011V26c-.187-1.053-.734-1.96-1.52-2.547-2.907-2.2-4.267-5.8-3.52-9.426.733-3.534 3.6-6.414 7.133-7.147zM31 15a1 1 0 010 2h-2.61a1 1 0 010-2H31zM3.61 15a1 1 0 010 2H1a1 1 0 010-2h2.61zm12.723-5c-.546 0-1 .453-1 1 0 .547.454 1 1 1A3.665 3.665 0 0120 15.667c0 .546.453 1 1 1 .547 0 1-.454 1-1A5.679 5.679 0 0016.333 10zm10.982-5.315a1 1 0 010 1.415l-1.846 1.845a1.003 1.003 0 01-1.414 0 1 1 0 010-1.414L25.9 4.685a1 1 0 011.415 0zm-21.214 0l1.846 1.846a1 1 0 11-1.415 1.414L4.687 6.1A1 1 0 116.1 4.685zM16 0a1 1 0 011 1v2.61a1 1 0 01-2 0V1a1 1 0 011-1z" fill="#FFF" fill-rule="nonzero"/></svg>