<svg width="19" height="28" xmlns="http://www.w3.org/2000/svg"><path d="M11.947 13.93l5.974-5.999a1.653 1.653 0 00-.25-2.537L10.076.282a1.663 1.663 0 00-2.592 1.37v7.942L3.533 5.6a1.641 1.641 0 00-2.326-.01 1.652 1.652 0 00-.01 2.336l5.953 6.002-5.953 6.002a1.653 1.653 0 00.01 2.338 1.64 1.64 0 002.326-.01l3.95-3.994v7.941c0 .61.348 1.172.887 1.459a1.659 1.659 0 001.705-.09l7.596-5.11a1.655 1.655 0 00.25-2.538l-5.974-5.996zm-1.111-9.173l3.358 2.26-3.358 3.372V4.757zm0 18.348v-5.632l3.358 3.372-3.358 2.26z" fill="#FFF" fill-rule="nonzero"/></svg>