<svg width="79" height="26" xmlns="http://www.w3.org/2000/svg"><path d="M8.008 25.384c-1.013 0-1.99-.117-2.928-.352a8.821 8.821 0 0 1-2.52-1.04 5.379 5.379 0 0 1-1.76-1.72c-.432-.688-.648-1.49-.648-2.408V19.576H5.08V19.8c0 .619.275 1.072.824 1.36.55.288 1.293.432 2.232.432.49 0 .963-.05 1.416-.152.453-.101.827-.267 1.12-.496.293-.23.44-.52.44-.872 0-.565-.312-.965-.936-1.2-.624-.235-1.624-.47-3-.704a19.855 19.855 0 0 1-2.368-.544 10 10 0 0 1-2.208-.936A4.827 4.827 0 0 1 .984 15.2C.579 14.597.376 13.864.376 13c0-1.152.35-2.123 1.048-2.912.699-.79 1.63-1.387 2.792-1.792 1.163-.405 2.443-.608 3.84-.608 1.333 0 2.576.221 3.728.664 1.152.443 2.085 1.077 2.8 1.904.715.827 1.072 1.821 1.072 2.984v.224h-4.88v-.192c0-.427-.136-.773-.408-1.04a2.563 2.563 0 0 0-1.032-.6 4.22 4.22 0 0 0-1.296-.2 6.11 6.11 0 0 0-1.256.136 2.96 2.96 0 0 0-1.096.448 1.003 1.003 0 0 0-.448.872c0 .363.16.659.48.888.32.23.768.416 1.344.56.576.144 1.243.28 2 .408a24.9 24.9 0 0 1 2.264.488 9.99 9.99 0 0 1 2.24.88 4.882 4.882 0 0 1 1.696 1.488c.432.613.648 1.39.648 2.328 0 .97-.224 1.803-.672 2.496a5.126 5.126 0 0 1-1.816 1.688 9.18 9.18 0 0 1-2.544.96c-.933.208-1.89.312-2.872.312Zm16.58-.064c-1.206 0-2.198-.195-2.976-.584-.78-.39-1.392-.915-1.84-1.576a6.381 6.381 0 0 1-.944-2.208 11.254 11.254 0 0 1-.272-2.464V8.008h4.96v9.168c0 .715.08 1.37.24 1.968.16.597.456 1.077.888 1.44s1.048.544 1.848.544c.778 0 1.44-.221 1.984-.664.544-.443.96-1.01 1.248-1.704a5.538 5.538 0 0 0 .432-2.144l1.392 1.136a8.842 8.842 0 0 1-.488 2.976 7.408 7.408 0 0 1-1.384 2.408 6.208 6.208 0 0 1-2.184 1.608c-.86.384-1.827.576-2.904.576Zm5.568-.32V8.008h4.96V25h-4.96Zm8.035 0V8.008h4.912V25h-4.912ZM40.64 5.24c-.768 0-1.437-.203-2.008-.608-.57-.405-.856-.976-.856-1.712 0-.747.285-1.323.856-1.728.57-.405 1.24-.608 2.008-.608.779 0 1.453.203 2.024.608.57.405.856.981.856 1.728s-.285 1.32-.856 1.72c-.57.4-1.245.6-2.024.6Zm14.036 20.112c-.651 0-1.32-.056-2.008-.168a5.718 5.718 0 0 1-1.92-.672c-.592-.336-1.07-.83-1.432-1.48-.363-.65-.544-1.51-.544-2.576v-8.608h-3.92v-3.84h1.104c.64 0 1.149-.027 1.528-.08.378-.053.661-.19.848-.408.186-.219.306-.563.36-1.032.053-.47.08-1.115.08-1.936V2.408h4.976v5.6h4.944v3.84h-4.944V19.048c0 .736.088 1.333.264 1.792.176.459.616.688 1.32.688a5.01 5.01 0 0 0 1-.096c.314-.064.552-.128.712-.192v3.728a4.913 4.913 0 0 1-.944.264c-.406.08-.88.12-1.424.12Zm8.051-7.36v-3.28H73.99l-.48.832v-.48c0-.608-.144-1.192-.432-1.752-.288-.56-.733-1.019-1.336-1.376-.602-.357-1.373-.536-2.312-.536-.938 0-1.746.2-2.424.6-.677.4-1.194.973-1.552 1.72-.357.747-.536 1.648-.536 2.704 0 1.088.174 2.019.52 2.792.347.773.864 1.368 1.552 1.784.688.416 1.544.624 2.568.624.662 0 1.232-.061 1.712-.184s.872-.28 1.176-.472c.304-.192.536-.405.696-.64.16-.235.256-.464.288-.688h4.896c-.064.715-.31 1.416-.736 2.104-.426.688-1.018 1.307-1.776 1.856-.757.55-1.677.984-2.76 1.304-1.082.32-2.317.48-3.704.48-1.877 0-3.514-.376-4.912-1.128-1.397-.752-2.48-1.792-3.248-3.12-.768-1.328-1.152-2.861-1.152-4.6 0-1.76.392-3.304 1.176-4.632.784-1.328 1.878-2.363 3.28-3.104 1.403-.741 3.027-1.112 4.872-1.112 1.888 0 3.52.376 4.896 1.128a7.878 7.878 0 0 1 3.184 3.152c.747 1.35 1.12 2.92 1.12 4.712 0 .267-.005.523-.016.768-.01.245-.026.427-.048.544H62.726Z" fill="#172339"/></svg>